<?xml version="1.0" encoding="UTF-8" standalone="no"?>
<svg
   xmlns:serif="http://www.serif.com/"
   xmlns:dc="http://purl.org/dc/elements/1.1/"
   xmlns:cc="http://creativecommons.org/ns#"
   xmlns:rdf="http://www.w3.org/1999/02/22-rdf-syntax-ns#"
   xmlns:svg="http://www.w3.org/2000/svg"
   xmlns="http://www.w3.org/2000/svg"
   xmlns:sodipodi="http://sodipodi.sourceforge.net/DTD/sodipodi-0.dtd"
   xmlns:inkscape="http://www.inkscape.org/namespaces/inkscape"
   inkscape:version="1.0 (1.0+r73+1)"
   sodipodi:docname="ico_alarm.svg"
   id="svg10"
   style="fill-rule:evenodd;clip-rule:evenodd;stroke-linejoin:round;stroke-miterlimit:1.41421;"
   xml:space="preserve"
   class="primary__fill"
   version="1.1"
   viewBox="0 0 400 400"
   height="100%"
   width="100%"><metadata
     id="metadata16"><rdf:RDF><cc:Work
         rdf:about=""><dc:format>image/svg+xml</dc:format><dc:type
           rdf:resource="http://purl.org/dc/dcmitype/StillImage" /></cc:Work></rdf:RDF></metadata><defs
     id="defs14" /><sodipodi:namedview
     inkscape:current-layer="Reading-types"
     inkscape:window-maximized="1"
     inkscape:window-y="34"
     inkscape:window-x="0"
     inkscape:cy="200"
     inkscape:cx="200.94563"
     inkscape:zoom="2.115"
     showgrid="false"
     id="namedview12"
     inkscape:window-height="1014"
     inkscape:window-width="1920"
     inkscape:pageshadow="2"
     inkscape:pageopacity="0"
     guidetolerance="10"
     gridtolerance="10"
     objecttolerance="10"
     borderopacity="1"
     bordercolor="#666666"
     pagecolor="#ffffff" /><g
     serif:id="Reading types"
     id="Reading-types"><rect
       style="fill:none;"
       height="400"
       width="400"
       y="0"
       x="0"
       id="Alarm" /><clipPath
       id="_clip1"><rect
         height="400"
         width="400"
         y="0"
         x="0"
         serif:id="Alarm"
         id="Alarm1" /></clipPath><g
       style="fill:#009b88;stroke:none"
       id="g7"
       clip-path="url(#_clip1)"><path
         style="fill:#009b88;stroke:none"
         id="path5"
         d="M220.811,304.165c-0.414,1.949 -1.107,3.839 -2.046,5.595c-3.555,6.642 -11.355,9.939 -11.355,9.939c-3.413,1.24 -7.697,1.301 -7.697,1.301c-9.645,-0.309 -18.409,-7.567 -20.379,-16.835l41.477,0Zm-21.141,-205.848c-8.438,0.204 -16.393,7.099 -17.646,15.714c0,0 -0.45,4.249 -0.45,4.249c-23.753,7.281 -44.823,24.422 -53.154,48.418c-2.774,7.987 -4.08,16.454 -4.108,24.929l0,71.321c-0.123,6.003 -0.12,12.131 -2.403,17.533c-1.613,3.816 -4.295,7.082 -7.216,10.071c-0.503,0.595 -0.442,-0.245 -0.142,2.233c0.02,0.136 0.115,0.311 0.115,0.311c3.285,0.12 6.573,0.064 9.859,0.058c0,0 3.715,0.015 6.445,0.029c3.324,0.017 6.649,0.031 9.973,0.047c48.292,0.194 96.31,0.149 144.387,-0.136c0.54,-1.322 0.041,-2.624 0.041,-2.624c-0.198,-0.209 -0.394,-0.419 -0.589,-0.631c-4.341,-4.755 -7.657,-10.284 -8.477,-16.93c-0.374,-3.033 -0.402,-6.094 -0.456,-9.145l-0.017,-0.817c0.003,-23.917 0.025,-47.83 0,-71.692c-0.188,-24.538 -12.953,-48.818 -33.483,-62.342c-6.129,-4.037 -12.832,-7.212 -19.818,-9.421c0,0 -3.962,-1.209 -3.962,-1.209c-0.698,-6.704 -2.593,-13.333 -8.994,-17.266c-2.65,-1.628 -5.742,-2.517 -8.878,-2.692c0,0 -0.591,-0.013 -1.027,-0.008Zm1.031,28.317l-1.261,0c-9.779,0.192 -19.499,2.449 -28.267,6.741c-21.243,10.398 -35.429,33.447 -35.972,57.094c-0.006,0.302 -0.006,0.301 -0.009,0.603c-0.115,30.271 -0.006,60.764 0,91.144l129.761,0l0.001,-10.696c0.009,-23.139 0.029,-46.278 0.014,-69.422c-0.012,-9.02 -0.037,-18.144 -2.11,-26.836c-6.64,-27.842 -33.769,-47.96 -61.787,-48.622l-0.37,-0.006Zm-57.999,-47.619c3.128,0.251 3.597,1.353 4.313,2.431c1.583,2.382 0.898,5.968 -1.513,7.58c-1.086,0.725 -1.37,0.706 -1.923,0.967c-24.295,11.557 -45.341,31.164 -53.619,57.27c-2.499,7.881 -3.784,16.125 -4.029,24.385c0,0 -0.704,3.878 -3.512,4.948c-3.032,1.155 -6.906,-1.015 -7.34,-4.416c-0.17,-1.33 -0.018,-1.646 0.01,-2.334c0.866,-19.879 7.686,-39.45 20.031,-55.401c11.629,-15.025 27.291,-26.617 44.445,-34.638c0,0 1.696,-0.794 3.137,-0.792Zm115.504,0.032c2.234,0.352 2.284,0.759 2.929,1.064c34.797,16.567 62.43,49.264 63.863,90.625c0,0 0.122,2.811 -1.463,4.498c-2.897,3.085 -9.084,1.172 -9.412,-3.586c-0.512,-17.264 -6.006,-34.533 -16.539,-48.832c-10.671,-14.485 -25.544,-25.546 -41.697,-33.099l-0.97,-0.467c-1.192,-0.731 -1.434,-1.077 -1.871,-1.73c-2.028,-3.036 0.064,-8.013 3.879,-8.471c0.817,-0.098 1.016,-0.022 1.281,-0.002Z" /></g></g></svg>
