<?xml version="1.0" encoding="UTF-8" standalone="no"?>
<svg
   xmlns:serif="http://www.serif.com/"
   xmlns:dc="http://purl.org/dc/elements/1.1/"
   xmlns:cc="http://creativecommons.org/ns#"
   xmlns:rdf="http://www.w3.org/1999/02/22-rdf-syntax-ns#"
   xmlns:svg="http://www.w3.org/2000/svg"
   xmlns="http://www.w3.org/2000/svg"
   xmlns:sodipodi="http://sodipodi.sourceforge.net/DTD/sodipodi-0.dtd"
   xmlns:inkscape="http://www.inkscape.org/namespaces/inkscape"
   inkscape:version="1.0 (1.0+r73+1)"
   sodipodi:docname="ico_slider.svg"
   id="svg58"
   style="fill-rule:evenodd;clip-rule:evenodd;stroke-linejoin:round;stroke-miterlimit:1.41421;"
   xml:space="preserve"
   version="1.1"
   viewBox="0 0 400 400"
   class="primary__fill"
   height="100%"
   width="100%"><metadata
     id="metadata64"><rdf:RDF><cc:Work
         rdf:about=""><dc:format>image/svg+xml</dc:format><dc:type
           rdf:resource="http://purl.org/dc/dcmitype/StillImage" /></cc:Work></rdf:RDF></metadata><defs
     id="defs62" /><sodipodi:namedview
     inkscape:current-layer="Reading-types"
     inkscape:window-maximized="1"
     inkscape:window-y="34"
     inkscape:window-x="0"
     inkscape:cy="200"
     inkscape:cx="200.94563"
     inkscape:zoom="2.115"
     showgrid="false"
     id="namedview60"
     inkscape:window-height="1014"
     inkscape:window-width="1920"
     inkscape:pageshadow="2"
     inkscape:pageopacity="0"
     guidetolerance="10"
     gridtolerance="10"
     objecttolerance="10"
     borderopacity="1"
     bordercolor="#666666"
     pagecolor="#ffffff" /><g
     serif:id="Reading types"
     id="Reading-types"><rect
       style="fill:none;"
       height="400"
       width="400"
       y="0"
       x="0"
       id="Slider" /><clipPath
       id="_clip1"><rect
         height="400"
         width="400"
         y="0"
         x="0"
         serif:id="Slider"
         id="Slider1" /></clipPath><g
       style="fill:#009b88;stroke:none"
       id="g55"
       clip-path="url(#_clip1)"><path
         style="fill:#009b88;stroke:none"
         id="path53"
         d="M129.203,225.264c2.648,-10.847 12.412,-18.907 24.038,-18.907c11.626,0 21.39,8.06 24.037,18.907l141.826,0c3.254,0 5.896,2.651 5.896,5.915c0,3.264 -2.642,5.914 -5.896,5.914l-141.826,0c-2.647,10.848 -12.411,18.907 -24.037,18.907c-11.626,0 -21.39,-8.059 -24.038,-18.907l-48.307,0c-3.254,0 -5.896,-2.65 -5.896,-5.914c0,-3.264 2.642,-5.915 5.896,-5.915l48.307,0Zm101.167,-62.357c2.648,-10.848 12.412,-18.907 24.038,-18.907c11.626,0 21.39,8.059 24.038,18.907l40.658,0c3.254,0 5.896,2.65 5.896,5.914c0,3.264 -2.642,5.915 -5.896,5.915l-40.658,0c-2.648,10.847 -12.412,18.907 -24.038,18.907c-11.626,0 -21.39,-8.06 -24.038,-18.907l-149.474,0c-3.254,0 -5.896,-2.651 -5.896,-5.915c0,-3.264 2.642,-5.914 5.896,-5.914l149.474,0Z" /></g></g></svg>
