<?xml version="1.0" encoding="UTF-8" standalone="no"?>
<svg
   xmlns:dc="http://purl.org/dc/elements/1.1/"
   xmlns:cc="http://creativecommons.org/ns#"
   xmlns:rdf="http://www.w3.org/1999/02/22-rdf-syntax-ns#"
   xmlns:svg="http://www.w3.org/2000/svg"
   xmlns="http://www.w3.org/2000/svg"
   xmlns:sodipodi="http://sodipodi.sourceforge.net/DTD/sodipodi-0.dtd"
   xmlns:inkscape="http://www.inkscape.org/namespaces/inkscape"
   inkscape:version="1.0 (1.0+r73+1)"
   sodipodi:docname="ico_temperature.svg"
   id="svg100"
   style="fill-rule:evenodd;clip-rule:evenodd;stroke-linejoin:round;stroke-miterlimit:1.41421;"
   class="primary__fill"
   xml:space="preserve"
   version="1.1"
   viewBox="0 0 125730 125730"
   height="100%"
   width="100%"><metadata
     id="metadata106"><rdf:RDF><cc:Work
         rdf:about=""><dc:format>image/svg+xml</dc:format><dc:type
           rdf:resource="http://purl.org/dc/dcmitype/StillImage" /></cc:Work></rdf:RDF></metadata><defs
     id="defs104" /><sodipodi:namedview
     inkscape:current-layer="svg100"
     inkscape:window-maximized="1"
     inkscape:window-y="34"
     inkscape:window-x="0"
     inkscape:cy="58865"
     inkscape:cx="63065"
     inkscape:zoom="0.01"
     showgrid="false"
     id="namedview102"
     inkscape:window-height="1014"
     inkscape:window-width="1920"
     inkscape:pageshadow="2"
     inkscape:pageopacity="0"
     guidetolerance="10"
     gridtolerance="10"
     objecttolerance="10"
     borderopacity="1"
     bordercolor="#666666"
     pagecolor="#ffffff" /><path
     style="fill:#009b88;stroke:none"
     id="path98"
     d="M63552,17865c5363.8,0 9694.24,4274.91 9783.69,9616.16c0.941,55.954 0,110.576 0,166.531l0,51077.7c3648.02,3026.48 5995.11,7595.82 5995.11,12696.6c0,9092.72 -7392.73,16443 -16486.6,16443c-9093.84,0 -16444.9,-7350.28 -16444.9,-16443c0,-5086.64 2292.08,-9634.4 5911.85,-12655l0,-51119.3c0,-5419.71 4363.53,-9782.69 9783.69,-9782.69l0.01,-0.001l1457.15,0Zm-1165.73,4246.14l-0.02,-0.026c-3205.32,0 -5786.95,2581.23 -5786.95,5786.22l0,53034.3c-3570.28,2128.81 -5953.48,6036.03 -5953.48,10490.4c0,6731.06 5466.56,12197 12198.4,12197c6731.84,0 12198.4,-5465.95 12198.4,-12197c0,-4467.04 -2408.06,-8365.6 -5995.11,-10490.4l0,-374.628c0,-1470.54 -0.108,-2933.48 0,-4412.54c0.372,-5082.73 1.144,-10209.5 0.534,-15330.4l-0.87,-4287.44c-0.98,-3301.93 -2.743,-6595.63 -5.767,-9867.66l-5127.57,0c-1163.95,0 -2123.27,-917.65 -2123.27,-2081.64l0,-82.599c0,-1163.85 959.32,-2123.2 2123.27,-2123.2l5122.82,0c-4.296,-3308.6 -1.347,-1792.66 -9.198,-5030.02l-5104.85,0c-1163.95,0 -2123.27,-959.36 -2123.27,-2123.34l0,-82.599c0,-1163.86 959.32,-2081.64 2123.27,-2081.64l5093.15,0c-0.367,-120.25 -9.508,-5036.43 -9.881,-5156.54c0,-3204.99 -2540.95,-5707.62 -5745.32,-5786.22l-874.287,0l-0.001,-0.029Zm395.47,33613.8c-1525.6,0 -2747.76,959.284 -2747.76,2123.27l0,24792.4c-3662.16,1187.72 -6286.54,4642.76 -6286.54,8701.24c0,5041.36 4076.34,9075.93 9117.57,9075.93c5041.24,0 9117.57,-4034.58 9117.57,-9075.93c0,-4090.57 -2662.24,-7582.49 -6369.81,-8742.87l0,-24750.7c0,-1163.99 -1222.33,-2123.27 -2747.76,-2123.27l-83.265,0l-0.005,-0.07l0,0Z" /></svg>
